# xmcd CD database file
#
# Track frame offsets:
#	150
#	21823
#	44643
#	62283
#	99438
#	117564
#	138863
#	162920
#	181941
#
# Disc length: 2750 seconds
#
# Revision: 0
# Processed by: cddbd v1.5.2PL0 Copyright (c) Steve Scherf et al.
# Submitted via: CDex 1.84
#
DISCID=710abc09
DTITLE=The Comet Is Coming - Trust In The Life Force Of The Deep Mystery
DYEAR=2019
DGENRE=Jazz
TTITLE0=Because the end is really the beginning 
TTITLE1=Birth of creation
TTITLE2=Summon the fire
TTITLE3=Blood of the past
TTITLE4=Super zodiac
TTITLE5=Astral flying
TTITLE6=Timewave zero
TTITLE7=Unity
TTITLE8=The universe wakes up
EXTD=YEAR: 2019
EXTT0=
EXTT1=
EXTT2=
EXTT3=
EXTT4=
EXTT5=
EXTT6=
EXTT7=
EXTT8=
PLAYORDER=
